<svg width="444" height="320" viewBox="0 0 444 320" fill="none" xmlns="http://www.w3.org/2000/svg">
<path d="M99.0857 266.851C98.1157 265.781 98.0157 265.581 97.8857 265.541C91.7957 263.871 90.6157 261.491 94.5457 255.991C97.8657 251.341 102.156 247.311 106.346 243.361C109.876 240.031 112.106 236.801 111.796 231.441C111.596 227.941 113.866 224.281 115.086 220.701C115.456 219.611 116.136 218.601 116.446 217.501C117.496 213.791 116.746 212.681 112.816 212.541C109.666 212.431 106.506 212.701 103.346 212.781C100.196 212.861 98.6857 211.781 98.5257 208.161C98.3357 203.911 97.0957 199.701 96.2257 195.491C94.6457 187.891 92.9857 180.301 91.3757 172.701C91.0657 171.241 91.3157 169.341 90.4757 168.361C84.4457 161.411 86.1057 151.971 82.4557 144.171C80.3657 139.721 80.5957 134.191 79.7857 129.141C79.7357 128.811 79.7557 128.481 79.7357 128.141C79.0157 117.591 75.9157 113.361 65.6457 111.441C57.2557 109.871 50.5457 105.911 44.4357 100.311C42.9057 98.901 40.7657 98.1209 38.8557 97.1609C35.4557 95.4409 31.8457 94.1009 31.5057 89.3209C31.4257 88.1709 29.8357 86.9909 28.7257 86.0809C27.1957 84.8109 25.2757 83.991 23.8857 82.601C21.5857 80.311 19.6357 77.631 22.2257 74.351C24.7057 71.221 23.1757 69.201 20.5657 67.421C19.3357 66.581 17.9457 65.9709 16.7157 65.1209C13.0457 62.5709 12.7857 60.441 15.6357 56.891C18.9057 52.821 18.8857 52.861 13.7357 51.011C12.3457 50.511 10.9857 49.801 9.7457 48.991C5.7957 46.401 5.89571 43.611 9.69571 40.861C11.6157 39.471 13.1757 37.581 14.8957 35.921C12.7157 34.621 10.5657 33.281 8.35569 32.041C7.64569 31.651 6.78569 31.531 5.98569 31.291C-0.994307 29.191 -1.65435 27.171 2.88565 21.361C4.56565 19.211 4.85569 17.111 4.23569 14.421C2.81569 8.26095 3.64571 6.51095 9.87571 6.49095C17.7657 6.46095 25.7757 7.22095 33.5157 8.75095C42.2557 10.481 50.7557 13.421 59.3457 15.881C73.8157 20.031 88.3657 23.901 102.686 28.511C110.686 31.091 118.226 35.061 126.076 38.151C129.276 39.411 132.706 40.181 136.096 40.861C139.196 41.481 140.846 39.911 140.776 36.731C140.736 35.241 140.776 33.661 140.306 32.291C138.926 28.261 138.726 24.311 139.486 20.091C140.366 15.191 138.086 11.451 133.786 8.96095C131.916 7.88095 129.706 7.11095 128.306 5.60095C127.166 4.37095 126.996 2.24095 126.406 0.510952C127.766 0.360952 129.286 -0.269048 130.456 0.130952C134.666 1.60095 138.736 3.06095 143.376 3.11095C145.486 3.13095 147.946 5.10095 149.616 6.81095C154.486 11.771 160.176 15.311 166.566 17.851C167.486 18.211 168.416 18.601 169.226 19.151C176.516 24.041 183.986 28.691 190.976 33.981C195.676 37.531 199.666 42.011 204.016 46.041C205.466 47.381 206.836 49.051 208.576 49.761C218.436 53.771 225.016 61.7109 232.106 69.0109C236.796 73.8409 237.736 80.1509 234.836 85.6609C228.396 97.9109 228.316 110.861 228.846 123.991C229.886 149.631 239.556 170.931 261.046 185.941C268.366 191.061 275.776 196.391 285.106 196.921C289.136 197.151 293.236 196.291 297.286 195.791C299.246 195.551 301.236 194.461 303.086 194.711C311.636 195.871 318.666 192.671 325.186 187.671C332.326 182.201 340.526 179.431 349.246 177.541C353.706 176.581 357.986 174.461 362.116 172.411C367.736 169.631 373.196 166.521 378.616 163.371C388.066 157.891 398.266 158.011 408.596 159.221C409.806 159.361 411.136 160.181 412.046 161.071C418.226 167.121 425.256 171.331 433.916 173.041C437.276 173.701 440.316 176.001 443.506 177.551C443.456 178.191 443.406 178.841 443.356 179.481C439.786 180.311 436.236 181.711 432.636 181.851C425.536 182.121 418.856 183.701 412.406 186.521C406.026 189.311 399.276 190.011 392.436 189.911C378.176 189.701 364.316 192.001 351.016 197.031C343.806 199.761 336.576 202.401 330.566 207.851C322.876 214.821 314.426 220.951 306.396 227.551C297.716 234.681 287.596 238.441 276.776 240.671C263.526 243.401 251.456 248.691 239.746 255.601C229.586 261.591 218.376 265.921 207.366 270.331C200.326 273.151 192.666 274.411 185.546 277.091C180.086 279.151 175.876 278.981 172.686 273.271C165.296 285.771 153.386 284.561 141.916 284.471C138.276 284.441 134.626 284.021 130.986 283.701C128.396 283.471 126.276 283.621 124.626 286.311C124.006 287.321 121.476 287.361 119.786 287.461C117.646 287.591 116.866 288.241 117.246 290.531C118.436 297.741 114.936 302.731 107.826 303.681C105.476 304.001 104.156 304.831 102.606 306.661C98.5857 311.381 93.5957 314.951 87.4357 316.561C85.5157 317.061 83.5757 317.501 81.6857 318.121C75.7657 320.051 75.8157 320.041 71.8057 315.201C71.3257 314.621 69.9457 314.471 69.0557 314.601C65.8157 315.091 62.6257 315.981 59.3757 316.351C56.3157 316.701 54.6157 315.741 54.6457 311.901C54.6757 308.791 53.5857 305.401 52.1057 302.611C48.0157 294.891 48.4757 291.821 55.9357 286.861C59.0857 284.771 62.7857 283.511 65.9157 281.401C71.9057 277.361 78.1657 275.551 85.5457 275.031C90.1157 274.711 94.3657 269.881 99.0757 266.881L99.0857 266.851Z" fill="black"/>
</svg>
